<mxfile host="app.diagrams.net" modified="2024-03-21T08:29:55.923Z" agent="Mozilla/5.0 (X11; Ubuntu; Linux x86_64; rv:123.0) Gecko/20100101 Firefox/123.0" etag="fuCoBd5UsAD5lL-jbHIR" version="24.0.7" type="device">
  <diagram name="Page-1" id="bfe91b75-5d2c-26a0-9c1d-138518896778">
    <mxGraphModel dx="3802" dy="795" grid="1" gridSize="10" guides="1" tooltips="1" connect="1" arrows="1" fold="1" page="1" pageScale="1" pageWidth="1100" pageHeight="850" background="none" math="0" shadow="0">
      <root>
        <mxCell id="0" />
        <mxCell id="1" parent="0" />
        <mxCell id="2TYn0S3XpkMkLbt7AnBh-1" value="" style="ellipse;shape=cloud;whiteSpace=wrap;html=1;" vertex="1" parent="1">
          <mxGeometry x="-920" y="340" width="300" height="150" as="geometry" />
        </mxCell>
        <mxCell id="2TYn0S3XpkMkLbt7AnBh-4" value="Internet" style="text;strokeColor=none;align=center;fillColor=none;html=1;verticalAlign=middle;whiteSpace=wrap;rounded=0;" vertex="1" parent="1">
          <mxGeometry x="-1200" y="285" width="860" height="280" as="geometry" />
        </mxCell>
        <mxCell id="2TYn0S3XpkMkLbt7AnBh-5" value="" style="endArrow=none;html=1;rounded=0;exitX=0.64;exitY=0.482;exitDx=0;exitDy=0;exitPerimeter=0;" edge="1" parent="1" source="2TYn0S3XpkMkLbt7AnBh-4">
          <mxGeometry width="50" height="50" relative="1" as="geometry">
            <mxPoint x="-230" y="420" as="sourcePoint" />
            <mxPoint x="-460" y="420" as="targetPoint" />
          </mxGeometry>
        </mxCell>
        <mxCell id="2TYn0S3XpkMkLbt7AnBh-6" value="&lt;div&gt;Gateway&lt;/div&gt;&lt;div&gt;192.168.1.1&lt;br&gt;&lt;/div&gt;" style="rounded=0;whiteSpace=wrap;html=1;" vertex="1" parent="1">
          <mxGeometry x="-460" y="360" width="240" height="110" as="geometry" />
        </mxCell>
        <mxCell id="2TYn0S3XpkMkLbt7AnBh-8" value="" style="endArrow=none;html=1;rounded=0;exitX=1;exitY=0.5;exitDx=0;exitDy=0;" edge="1" parent="1" source="2TYn0S3XpkMkLbt7AnBh-6">
          <mxGeometry width="50" height="50" relative="1" as="geometry">
            <mxPoint x="-200" y="420" as="sourcePoint" />
            <mxPoint x="-80" y="415" as="targetPoint" />
          </mxGeometry>
        </mxCell>
        <mxCell id="2TYn0S3XpkMkLbt7AnBh-10" value="" style="rounded=0;whiteSpace=wrap;html=1;" vertex="1" parent="1">
          <mxGeometry x="-90" y="360" width="190" height="107.5" as="geometry" />
        </mxCell>
        <mxCell id="2TYn0S3XpkMkLbt7AnBh-12" value="&lt;div&gt;CIDR Block&lt;/div&gt;&lt;div&gt;192.168.1.0/24&lt;br&gt;&lt;/div&gt;" style="text;strokeColor=none;align=center;fillColor=none;html=1;verticalAlign=middle;whiteSpace=wrap;rounded=0;" vertex="1" parent="1">
          <mxGeometry x="-90" y="360" width="190" height="110" as="geometry" />
        </mxCell>
        <mxCell id="2TYn0S3XpkMkLbt7AnBh-14" value="" style="endArrow=none;html=1;rounded=0;" edge="1" parent="1">
          <mxGeometry width="50" height="50" relative="1" as="geometry">
            <mxPoint x="100" y="410" as="sourcePoint" />
            <mxPoint x="220" y="410" as="targetPoint" />
            <Array as="points">
              <mxPoint x="170" y="410" />
            </Array>
          </mxGeometry>
        </mxCell>
        <mxCell id="2TYn0S3XpkMkLbt7AnBh-15" value="" style="rounded=0;whiteSpace=wrap;html=1;" vertex="1" parent="1">
          <mxGeometry x="200" y="360" width="210" height="110" as="geometry" />
        </mxCell>
        <mxCell id="2TYn0S3XpkMkLbt7AnBh-17" value="&lt;div&gt;Subnet&lt;/div&gt;&lt;div&gt;255.255.255.0&lt;br&gt;&lt;/div&gt;" style="text;strokeColor=none;align=center;fillColor=none;html=1;verticalAlign=middle;whiteSpace=wrap;rounded=0;" vertex="1" parent="1">
          <mxGeometry x="200" y="360" width="210" height="110" as="geometry" />
        </mxCell>
      </root>
    </mxGraphModel>
  </diagram>
</mxfile>
